{
 "cells": [
  {
   "cell_type": "markdown",
   "metadata": {},
   "source": [
    "## Img subtitle Removal\n",
    "POC of Img Subtitle removal using computer vision"
   ]
  },
  {
   "cell_type": "code",
   "execution_count": 1,
   "metadata": {},
   "outputs": [],
   "source": [
    "import cv2\n",
    "import os\n",
    "import numpy as np\n",
    "import re"
   ]
  },
  {
   "cell_type": "markdown",
   "metadata": {},
   "source": [
    "Subtiltle removal logic"
   ]
  },
  {
   "cell_type": "code",
   "execution_count": null,
   "metadata": {},
   "outputs": [],
   "source": [
    "def remove_subtiltle(image):\n",
    "    image = cv2.imread(image)\n",
    "\n",
    "    # Create a black image with the same shape as the original image\n",
    "    mask = np.zeros(image.shape, np.uint8)\n",
    "\n",
    "    # Convert the original image to grayscale\n",
    "    tmp_image = cv2.cvtColor(image, cv2.COLOR_BGR2GRAY)\n",
    "\n",
    "    # Apply a gaussian blur to the grayscale image. This can help to smooth the image and reduce noise.\n",
    "    # tmp_image = cv2.GaussianBlur(tmp_image, (11,11), 0)\n",
    "    # cv2.imshow(\"GaussianBlur\", tmp_image)\n",
    "\n",
    "    # Apply a binary threshold to the grayscale image. All pixels with a value greater than 240 will be set to 255 (white), and all others will be set to 0 (black).\n",
    "    tmp_image = cv2.threshold(tmp_image, 240, 255, cv2.THRESH_BINARY)[1]\n",
    "    cv2.imshow(\"threshold\", tmp_image)\n",
    "\n",
    "    # Create a rectangular structuring element (kernel) with dimensions 9x7. This will be used for morphological operations.\n",
    "    kernel = cv2.getStructuringElement(cv2.MORPH_RECT, (9,7))\n",
    "\n",
    "    # Perform a morphological close operation on the image. This operation dilates then erodes the image, which can help to close small holes in the foreground.\n",
    "    tmp_image = cv2.morphologyEx(tmp_image, cv2.MORPH_CLOSE, kernel)\n",
    "    # cv2.imshow(\"morphologyEx\", tmp_image)\n",
    "\n",
    "    # Dilate the image. This expands the white regions, which can help to connect disjointed parts of an object.\n",
    "    tmp_image = cv2.dilate(tmp_image, kernel, iterations=7)\n",
    "\n",
    "    # Find the contours in the image. This returns a list of contours and a hierarchy. Each contour is a numpy array of (x,y) coordinates of boundary points of the object.\n",
    "    contours, hierarchy = cv2.findContours(tmp_image, cv2.RETR_EXTERNAL, cv2.CHAIN_APPROX_SIMPLE)\n",
    "\n",
    "\n",
    "\n",
    "    # Check if any contours were found\n",
    "    if len(contours) != 0:\n",
    "        # Find the contour with the largest area\n",
    "        c = max(contours, key=cv2.contourArea)\n",
    "        # Get the bounding rectangle for the largest contour\n",
    "        x,y,w,h = cv2.boundingRect(c)\n",
    "\n",
    "    # Convert the mask to grayscale\n",
    "    mask = cv2.cvtColor(mask, cv2.COLOR_BGR2GRAY)\n",
    "    # Copy the region of the recognized image defined by the bounding rectangle to the same region of the mask\n",
    "    mask[y:y+h, x:x+w] = tmp_image[y:y+h, x:x+w]\n",
    "    # Erode the mask. This shrinks the white regions, which can help to remove small bits of noise.\n",
    "    mask = cv2.erode(mask, kernel, iterations=1)\n",
    "    # Apply a Gaussian blur to the mask. This can help to smooth the edges of the mask.\n",
    "    mask = cv2.GaussianBlur(mask, (5,5), 0)\n",
    "\n",
    "    # Use the mask to inpaint the original image. This will fill in the regions defined by the mask with the color of the surrounding pixels.\n",
    "    cleaned_image = cv2.inpaint(image, mask, 3, cv2.INPAINT_TELEA)\n",
    "\n",
    "    # Display the original image, the recognized image, the mask, and the cleaned image\n",
    "    cv2.imshow(\"original\", image)\n",
    "    cv2.imshow(\"b&w\", tmp_image)\n",
    "    cv2.imshow(\"mask\", mask)\n",
    "    cv2.imshow(\"clean\", cleaned_image)\n",
    "\n",
    "    # Wait for a key press before closing the image windows\n",
    "    cv2.waitKey(0)\n",
    "    # Save image\n",
    "    cv2.imwrite('cleaned_image.jpg', cleaned_image)"
   ]
  },
  {
   "cell_type": "code",
   "execution_count": null,
   "metadata": {},
   "outputs": [],
   "source": [
    "img = str(input(\"Enter the image path: \"))\n",
    "remove_subtiltle(img)"
   ]
  },
  {
   "cell_type": "markdown",
   "metadata": {},
   "source": [
    "## Video subtitle Removal\n",
    "POC of Video Subtitle removal using computer vision"
   ]
  },
  {
   "cell_type": "code",
   "execution_count": 2,
   "metadata": {},
   "outputs": [
    {
     "name": "stderr",
     "output_type": "stream",
     "text": [
      "ffmpeg version 6.1.1 Copyright (c) 2000-2023 the FFmpeg developers\n",
      "  built with Apple clang version 15.0.0 (clang-1500.1.0.2.5)\n",
      "  configuration: --prefix=/usr/local/Cellar/ffmpeg/6.1.1_4 --enable-shared --enable-pthreads --enable-version3 --cc=clang --host-cflags= --host-ldflags='-Wl,-ld_classic' --enable-ffplay --enable-gnutls --enable-gpl --enable-libaom --enable-libaribb24 --enable-libbluray --enable-libdav1d --enable-libharfbuzz --enable-libjxl --enable-libmp3lame --enable-libopus --enable-librav1e --enable-librist --enable-librubberband --enable-libsnappy --enable-libsrt --enable-libssh --enable-libsvtav1 --enable-libtesseract --enable-libtheora --enable-libvidstab --enable-libvmaf --enable-libvorbis --enable-libvpx --enable-libwebp --enable-libx264 --enable-libx265 --enable-libxml2 --enable-libxvid --enable-lzma --enable-libfontconfig --enable-libfreetype --enable-frei0r --enable-libass --enable-libopencore-amrnb --enable-libopencore-amrwb --enable-libopenjpeg --enable-libopenvino --enable-libspeex --enable-libsoxr --enable-libzmq --enable-libzimg --disable-libjack --disable-indev=jack --enable-videotoolbox --enable-audiotoolbox\n",
      "  libavutil      58. 29.100 / 58. 29.100\n",
      "  libavcodec     60. 31.102 / 60. 31.102\n",
      "  libavformat    60. 16.100 / 60. 16.100\n",
      "  libavdevice    60.  3.100 / 60.  3.100\n",
      "  libavfilter     9. 12.100 /  9. 12.100\n",
      "  libswscale      7.  5.100 /  7.  5.100\n",
      "  libswresample   4. 12.100 /  4. 12.100\n",
      "  libpostproc    57.  3.100 / 57.  3.100\n",
      "[mov,mp4,m4a,3gp,3g2,mj2 @ 0x7fb162f144c0] Unknown cover type: 0x1.\n",
      "Input #0, mov,mp4,m4a,3gp,3g2,mj2, from '/Users/jeanlecigne/IdeaProjects/Maydays/md-p-04_automatic_subtitle_removal/data/hello-there-sub-4.mp4':\n",
      "  Metadata:\n",
      "    major_brand     : qt  \n",
      "    minor_version   : 0\n",
      "    compatible_brands: qt  \n",
      "    creation_time   : 2024-05-07T09:45:54.000000Z\n",
      "  Duration: 00:00:13.93, start: 0.000000, bitrate: 11374 kb/s\n",
      "  Stream #0:0[0x1](und): Video: h264 (High) (avc1 / 0x31637661), yuv420p(tv, bt709, progressive), 2528x1080, 11265 kb/s, 30 fps, 30 tbr, 600 tbn (default)\n",
      "    Metadata:\n",
      "      creation_time   : 2024-05-07T09:45:54.000000Z\n",
      "      handler_name    : Core Media Video\n",
      "      vendor_id       : [0][0][0][0]\n",
      "      encoder         : H.264\n",
      "  Stream #0:1[0x2](und): Audio: aac (LC) (mp4a / 0x6134706D), 44100 Hz, stereo, fltp, 101 kb/s (default)\n",
      "    Metadata:\n",
      "      creation_time   : 2024-05-07T09:45:54.000000Z\n",
      "      handler_name    : Core Media Audio\n",
      "      vendor_id       : [0][0][0][0]\n",
      "Stream mapping:\n",
      "  Stream #0:1 -> #0:0 (aac (native) -> mp3 (libmp3lame))\n",
      "Press [q] to stop, [?] for help\n",
      "Output #0, mp3, to 'audio_output.mp3':\n",
      "  Metadata:\n",
      "    major_brand     : qt  \n",
      "    minor_version   : 0\n",
      "    compatible_brands: qt  \n",
      "    TSSE            : Lavf60.16.100\n",
      "  Stream #0:0(und): Audio: mp3, 48000 Hz, stereo, fltp, 192 kb/s (default)\n",
      "    Metadata:\n",
      "      creation_time   : 2024-05-07T09:45:54.000000Z\n",
      "      handler_name    : Core Media Audio\n",
      "      vendor_id       : [0][0][0][0]\n",
      "      encoder         : Lavc60.31.102 libmp3lame\n",
      "[out#0/mp3 @ 0x7fb162f1d6c0] video:0kB audio:328kB subtitle:0kB other streams:0kB global headers:0kB muxing overhead: 0.211430%\n",
      "size=     329kB time=00:00:13.94 bitrate= 193.1kbits/s speed=  58x    \n"
     ]
    },
    {
     "name": "stdout",
     "output_type": "stream",
     "text": [
      "Directory  /Users/jeanlecigne/IdeaProjects/Maydays/md-p-04_automatic_subtitle_removal/data/Temp  already exists\n",
      "frame0.jpg\n",
      "frame1.jpg\n",
      "frame2.jpg\n",
      "frame3.jpg\n",
      "frame4.jpg\n",
      "frame5.jpg\n",
      "frame6.jpg\n",
      "frame7.jpg\n",
      "frame8.jpg\n",
      "frame9.jpg\n",
      "frame10.jpg\n",
      "frame11.jpg\n",
      "frame12.jpg\n",
      "frame13.jpg\n",
      "frame14.jpg\n",
      "frame15.jpg\n",
      "frame16.jpg\n",
      "frame17.jpg\n",
      "frame18.jpg\n",
      "frame19.jpg\n",
      "frame20.jpg\n",
      "frame21.jpg\n",
      "frame22.jpg\n",
      "frame23.jpg\n",
      "frame24.jpg\n",
      "frame25.jpg\n",
      "frame26.jpg\n",
      "frame27.jpg\n",
      "frame28.jpg\n",
      "frame29.jpg\n",
      "frame30.jpg\n",
      "frame31.jpg\n",
      "frame32.jpg\n",
      "frame33.jpg\n",
      "frame34.jpg\n",
      "frame35.jpg\n",
      "frame36.jpg\n",
      "frame37.jpg\n",
      "frame38.jpg\n",
      "frame39.jpg\n",
      "frame40.jpg\n",
      "frame41.jpg\n",
      "frame42.jpg\n",
      "frame43.jpg\n",
      "frame44.jpg\n",
      "frame45.jpg\n",
      "frame46.jpg\n",
      "frame47.jpg\n",
      "frame48.jpg\n",
      "frame49.jpg\n",
      "frame50.jpg\n",
      "frame51.jpg\n",
      "frame52.jpg\n",
      "frame53.jpg\n",
      "frame54.jpg\n",
      "frame55.jpg\n",
      "frame56.jpg\n",
      "frame57.jpg\n",
      "frame58.jpg\n",
      "frame59.jpg\n",
      "frame60.jpg\n",
      "frame61.jpg\n",
      "frame62.jpg\n",
      "frame63.jpg\n",
      "frame64.jpg\n",
      "frame65.jpg\n",
      "frame66.jpg\n",
      "frame67.jpg\n",
      "frame68.jpg\n",
      "frame69.jpg\n",
      "frame70.jpg\n",
      "frame71.jpg\n",
      "frame72.jpg\n",
      "frame73.jpg\n",
      "frame74.jpg\n",
      "frame75.jpg\n",
      "frame76.jpg\n",
      "frame77.jpg\n",
      "frame78.jpg\n",
      "frame79.jpg\n",
      "frame80.jpg\n",
      "frame81.jpg\n",
      "frame82.jpg\n",
      "frame83.jpg\n",
      "frame84.jpg\n",
      "frame85.jpg\n",
      "frame86.jpg\n",
      "frame87.jpg\n",
      "frame88.jpg\n",
      "frame89.jpg\n",
      "frame90.jpg\n",
      "frame91.jpg\n",
      "frame92.jpg\n",
      "frame93.jpg\n",
      "frame94.jpg\n",
      "frame95.jpg\n",
      "frame96.jpg\n",
      "frame97.jpg\n",
      "frame98.jpg\n",
      "frame99.jpg\n",
      "frame100.jpg\n",
      "frame101.jpg\n",
      "frame102.jpg\n",
      "frame103.jpg\n",
      "frame104.jpg\n",
      "frame105.jpg\n",
      "frame106.jpg\n",
      "frame107.jpg\n",
      "frame108.jpg\n",
      "frame109.jpg\n",
      "frame110.jpg\n",
      "frame111.jpg\n",
      "frame112.jpg\n",
      "frame113.jpg\n",
      "frame114.jpg\n",
      "frame115.jpg\n",
      "frame116.jpg\n",
      "frame117.jpg\n",
      "frame118.jpg\n",
      "frame119.jpg\n",
      "frame120.jpg\n",
      "frame121.jpg\n",
      "frame122.jpg\n",
      "frame123.jpg\n",
      "frame124.jpg\n",
      "frame125.jpg\n",
      "frame126.jpg\n",
      "frame127.jpg\n",
      "frame128.jpg\n",
      "frame129.jpg\n",
      "frame130.jpg\n",
      "frame131.jpg\n",
      "frame132.jpg\n",
      "frame133.jpg\n",
      "frame134.jpg\n",
      "frame135.jpg\n",
      "frame136.jpg\n",
      "frame137.jpg\n",
      "frame138.jpg\n",
      "frame139.jpg\n",
      "frame140.jpg\n",
      "frame141.jpg\n",
      "frame142.jpg\n",
      "frame143.jpg\n",
      "frame144.jpg\n",
      "frame145.jpg\n",
      "frame146.jpg\n",
      "frame147.jpg\n",
      "frame148.jpg\n",
      "frame149.jpg\n",
      "frame150.jpg\n",
      "frame151.jpg\n",
      "frame152.jpg\n",
      "frame153.jpg\n",
      "frame154.jpg\n",
      "frame155.jpg\n",
      "frame156.jpg\n",
      "frame157.jpg\n",
      "frame158.jpg\n",
      "frame159.jpg\n",
      "frame160.jpg\n",
      "frame161.jpg\n",
      "frame162.jpg\n",
      "frame163.jpg\n",
      "frame164.jpg\n",
      "frame165.jpg\n",
      "frame166.jpg\n",
      "frame167.jpg\n",
      "frame168.jpg\n",
      "frame169.jpg\n",
      "frame170.jpg\n",
      "frame171.jpg\n",
      "frame172.jpg\n",
      "frame173.jpg\n",
      "frame174.jpg\n",
      "frame175.jpg\n",
      "frame176.jpg\n",
      "frame177.jpg\n",
      "frame178.jpg\n",
      "frame179.jpg\n",
      "frame180.jpg\n",
      "frame181.jpg\n",
      "frame182.jpg\n",
      "frame183.jpg\n",
      "frame184.jpg\n",
      "frame185.jpg\n",
      "frame186.jpg\n",
      "frame187.jpg\n",
      "frame188.jpg\n",
      "frame189.jpg\n",
      "frame190.jpg\n",
      "frame191.jpg\n",
      "frame192.jpg\n",
      "frame193.jpg\n",
      "frame194.jpg\n",
      "frame195.jpg\n",
      "frame196.jpg\n",
      "frame197.jpg\n",
      "frame198.jpg\n",
      "frame199.jpg\n",
      "frame200.jpg\n",
      "frame201.jpg\n",
      "frame202.jpg\n",
      "frame203.jpg\n",
      "frame204.jpg\n",
      "frame205.jpg\n",
      "frame206.jpg\n",
      "frame207.jpg\n",
      "frame208.jpg\n",
      "frame209.jpg\n",
      "frame210.jpg\n",
      "frame211.jpg\n",
      "frame212.jpg\n",
      "frame213.jpg\n",
      "frame214.jpg\n",
      "frame215.jpg\n",
      "frame216.jpg\n",
      "frame217.jpg\n",
      "frame218.jpg\n",
      "frame219.jpg\n",
      "frame220.jpg\n",
      "frame221.jpg\n",
      "frame222.jpg\n",
      "frame223.jpg\n",
      "frame224.jpg\n",
      "frame225.jpg\n",
      "frame226.jpg\n",
      "frame227.jpg\n",
      "frame228.jpg\n",
      "frame229.jpg\n",
      "frame230.jpg\n",
      "frame231.jpg\n",
      "frame232.jpg\n",
      "frame233.jpg\n",
      "frame234.jpg\n",
      "frame235.jpg\n",
      "frame236.jpg\n",
      "frame237.jpg\n",
      "frame238.jpg\n",
      "frame239.jpg\n",
      "frame240.jpg\n",
      "frame241.jpg\n",
      "frame242.jpg\n",
      "frame243.jpg\n",
      "frame244.jpg\n",
      "frame245.jpg\n",
      "frame246.jpg\n",
      "frame247.jpg\n",
      "frame248.jpg\n",
      "frame249.jpg\n",
      "frame250.jpg\n",
      "frame251.jpg\n",
      "frame252.jpg\n",
      "frame253.jpg\n",
      "frame254.jpg\n",
      "frame255.jpg\n",
      "frame256.jpg\n",
      "frame257.jpg\n",
      "frame258.jpg\n",
      "frame259.jpg\n",
      "frame260.jpg\n",
      "frame261.jpg\n",
      "frame262.jpg\n",
      "frame263.jpg\n",
      "frame264.jpg\n",
      "frame265.jpg\n",
      "frame266.jpg\n",
      "frame267.jpg\n",
      "frame268.jpg\n",
      "frame269.jpg\n",
      "frame270.jpg\n",
      "frame271.jpg\n",
      "frame272.jpg\n",
      "frame273.jpg\n",
      "frame274.jpg\n",
      "frame275.jpg\n",
      "frame276.jpg\n",
      "frame277.jpg\n",
      "frame278.jpg\n",
      "frame279.jpg\n",
      "frame280.jpg\n",
      "frame281.jpg\n",
      "frame282.jpg\n",
      "frame283.jpg\n",
      "frame284.jpg\n",
      "frame285.jpg\n",
      "frame286.jpg\n",
      "frame287.jpg\n",
      "frame288.jpg\n",
      "frame289.jpg\n",
      "frame290.jpg\n",
      "frame291.jpg\n",
      "frame292.jpg\n",
      "frame293.jpg\n",
      "frame294.jpg\n",
      "frame295.jpg\n",
      "frame296.jpg\n",
      "frame297.jpg\n",
      "frame298.jpg\n",
      "frame299.jpg\n",
      "frame300.jpg\n",
      "frame301.jpg\n",
      "frame302.jpg\n",
      "frame303.jpg\n",
      "frame304.jpg\n",
      "frame305.jpg\n",
      "frame306.jpg\n",
      "frame307.jpg\n",
      "frame308.jpg\n",
      "frame309.jpg\n",
      "frame310.jpg\n",
      "frame311.jpg\n",
      "frame312.jpg\n",
      "frame313.jpg\n",
      "frame314.jpg\n",
      "frame315.jpg\n",
      "frame316.jpg\n",
      "frame317.jpg\n",
      "frame318.jpg\n",
      "frame319.jpg\n",
      "frame320.jpg\n",
      "frame321.jpg\n",
      "frame322.jpg\n",
      "frame323.jpg\n",
      "frame324.jpg\n",
      "frame325.jpg\n",
      "frame326.jpg\n",
      "frame327.jpg\n",
      "frame328.jpg\n",
      "frame329.jpg\n",
      "frame330.jpg\n",
      "frame331.jpg\n",
      "frame332.jpg\n",
      "frame333.jpg\n",
      "frame334.jpg\n",
      "frame335.jpg\n",
      "frame336.jpg\n",
      "frame337.jpg\n",
      "frame338.jpg\n",
      "frame339.jpg\n",
      "frame340.jpg\n",
      "frame341.jpg\n",
      "frame342.jpg\n",
      "frame343.jpg\n",
      "frame344.jpg\n",
      "frame345.jpg\n",
      "frame346.jpg\n",
      "frame347.jpg\n",
      "frame348.jpg\n",
      "frame349.jpg\n",
      "frame350.jpg\n",
      "frame351.jpg\n",
      "frame352.jpg\n",
      "frame353.jpg\n",
      "frame354.jpg\n",
      "frame355.jpg\n",
      "frame356.jpg\n",
      "frame357.jpg\n",
      "frame358.jpg\n",
      "frame359.jpg\n",
      "frame360.jpg\n",
      "frame361.jpg\n",
      "frame362.jpg\n",
      "frame363.jpg\n",
      "frame364.jpg\n",
      "frame365.jpg\n",
      "frame366.jpg\n",
      "frame367.jpg\n",
      "frame368.jpg\n",
      "frame369.jpg\n",
      "frame370.jpg\n",
      "frame371.jpg\n",
      "frame372.jpg\n",
      "frame373.jpg\n",
      "frame374.jpg\n",
      "frame375.jpg\n",
      "frame376.jpg\n",
      "frame377.jpg\n",
      "frame378.jpg\n",
      "frame379.jpg\n",
      "frame380.jpg\n",
      "frame381.jpg\n",
      "frame382.jpg\n",
      "frame383.jpg\n",
      "frame384.jpg\n",
      "frame385.jpg\n",
      "frame386.jpg\n",
      "frame387.jpg\n",
      "frame388.jpg\n",
      "frame389.jpg\n",
      "frame390.jpg\n",
      "frame391.jpg\n",
      "frame392.jpg\n",
      "frame393.jpg\n",
      "frame394.jpg\n",
      "frame395.jpg\n",
      "frame396.jpg\n",
      "frame397.jpg\n",
      "frame398.jpg\n",
      "frame399.jpg\n",
      "frame400.jpg\n",
      "frame401.jpg\n",
      "frame402.jpg\n",
      "frame403.jpg\n",
      "frame404.jpg\n",
      "frame405.jpg\n",
      "frame406.jpg\n",
      "frame407.jpg\n",
      "frame408.jpg\n",
      "frame409.jpg\n",
      "frame410.jpg\n",
      "frame411.jpg\n",
      "frame412.jpg\n",
      "frame413.jpg\n",
      "frame414.jpg\n",
      "frame415.jpg\n",
      "frame416.jpg\n",
      "frame417.jpg\n"
     ]
    },
    {
     "name": "stderr",
     "output_type": "stream",
     "text": [
      "ffmpeg version 6.1.1 Copyright (c) 2000-2023 the FFmpeg developers\n",
      "  built with Apple clang version 15.0.0 (clang-1500.1.0.2.5)\n",
      "  configuration: --prefix=/usr/local/Cellar/ffmpeg/6.1.1_4 --enable-shared --enable-pthreads --enable-version3 --cc=clang --host-cflags= --host-ldflags='-Wl,-ld_classic' --enable-ffplay --enable-gnutls --enable-gpl --enable-libaom --enable-libaribb24 --enable-libbluray --enable-libdav1d --enable-libharfbuzz --enable-libjxl --enable-libmp3lame --enable-libopus --enable-librav1e --enable-librist --enable-librubberband --enable-libsnappy --enable-libsrt --enable-libssh --enable-libsvtav1 --enable-libtesseract --enable-libtheora --enable-libvidstab --enable-libvmaf --enable-libvorbis --enable-libvpx --enable-libwebp --enable-libx264 --enable-libx265 --enable-libxml2 --enable-libxvid --enable-lzma --enable-libfontconfig --enable-libfreetype --enable-frei0r --enable-libass --enable-libopencore-amrnb --enable-libopencore-amrwb --enable-libopenjpeg --enable-libopenvino --enable-libspeex --enable-libsoxr --enable-libzmq --enable-libzimg --disable-libjack --disable-indev=jack --enable-videotoolbox --enable-audiotoolbox\n",
      "  libavutil      58. 29.100 / 58. 29.100\n",
      "  libavcodec     60. 31.102 / 60. 31.102\n",
      "  libavformat    60. 16.100 / 60. 16.100\n",
      "  libavdevice    60.  3.100 / 60.  3.100\n",
      "  libavfilter     9. 12.100 /  9. 12.100\n",
      "  libswscale      7.  5.100 /  7.  5.100\n",
      "  libswresample   4. 12.100 /  4. 12.100\n",
      "  libpostproc    57.  3.100 / 57.  3.100\n",
      "Input #0, mov,mp4,m4a,3gp,3g2,mj2, from 'video_no_audio.mp4':\n",
      "  Metadata:\n",
      "    major_brand     : isom\n",
      "    minor_version   : 512\n",
      "    compatible_brands: isomiso2avc1mp41\n",
      "    encoder         : Lavf60.16.100\n",
      "  Duration: 00:00:13.93, start: 0.000000, bitrate: 3197 kb/s\n",
      "  Stream #0:0[0x1](und): Video: h264 (High) (avc1 / 0x31637661), yuv420p(progressive), 2528x1080, 3194 kb/s, 30 fps, 30 tbr, 15360 tbn (default)\n",
      "    Metadata:\n",
      "      handler_name    : VideoHandler\n",
      "      vendor_id       : [0][0][0][0]\n",
      "Input #1, mp3, from 'audio_output.mp3':\n",
      "  Metadata:\n",
      "    major_brand     : qt  \n",
      "    minor_version   : 0\n",
      "    compatible_brands: qt  \n",
      "    encoder         : Lavf60.16.100\n",
      "  Duration: 00:00:13.99, start: 0.023021, bitrate: 192 kb/s\n",
      "  Stream #1:0: Audio: mp3, 48000 Hz, stereo, fltp, 192 kb/s\n",
      "    Metadata:\n",
      "      encoder         : Lavc60.31\n",
      "Stream mapping:\n",
      "  Stream #0:0 -> #0:0 (copy)\n",
      "  Stream #1:0 -> #0:1 (mp3 (mp3float) -> aac (native))\n",
      "Press [q] to stop, [?] for help\n",
      "Output #0, mp4, to 'output_audio.mp4':\n",
      "  Metadata:\n",
      "    major_brand     : isom\n",
      "    minor_version   : 512\n",
      "    compatible_brands: isomiso2avc1mp41\n",
      "    encoder         : Lavf60.16.100\n",
      "  Stream #0:0(und): Video: h264 (High) (avc1 / 0x31637661), yuv420p(progressive), 2528x1080, q=2-31, 3194 kb/s, 30 fps, 30 tbr, 15360 tbn (default)\n",
      "    Metadata:\n",
      "      handler_name    : VideoHandler\n",
      "      vendor_id       : [0][0][0][0]\n",
      "  Stream #0:1: Audio: aac (LC) (mp4a / 0x6134706D), 48000 Hz, stereo, fltp, 128 kb/s\n",
      "    Metadata:\n",
      "      encoder         : Lavc60.31.102 aac\n",
      "size=       0kB time=N/A bitrate=N/A speed=N/A    \r"
     ]
    },
    {
     "name": "stdout",
     "output_type": "stream",
     "text": [
      "--- 35.841546058654785 seconds ---\n"
     ]
    },
    {
     "name": "stderr",
     "output_type": "stream",
     "text": [
      "[out#0/mp4 @ 0x7fbc9c80eec0] video:5433kB audio:218kB subtitle:0kB other streams:0kB global headers:0kB muxing overhead: 0.287243%\n",
      "size=    5667kB time=00:00:13.95 bitrate=3327.4kbits/s speed=50.2x    \n",
      "[aac @ 0x7fbc9c81d280] Qavg: 2699.604\n"
     ]
    }
   ],
   "source": [
    "import time\n",
    "import subprocess\n",
    "#This is the folder the video will be in, and a subfolder for the temporary processing files.\n",
    "dir = '' #Place video directory here\n",
    "video_name = 'hello-there-sub.mp4' #Place video name here\n",
    "\n",
    "audio_output = 'audio_output.mp3'\n",
    "command = f'ffmpeg -i {os.path.join(dir, video_name)} -vn -y -ab 192k -ar 48000 -ac 2 {audio_output}'\n",
    "subprocess.call(command, shell=True)\n",
    "\n",
    "#Sorts alphanumerically with frame formatting\n",
    "def sortedproper( l ):    \n",
    "    convert = lambda text: int(text) if text.isdigit() else text \n",
    "    alphanum_key = lambda key: [ convert(c) for c in re.split('([0-9]+)', key) ] \n",
    "    return sorted(l, key = alphanum_key)\n",
    "\n",
    "#Used for finding execution time\n",
    "start_time = time.time()\n",
    "\n",
    "#Video capture\n",
    "vid = cv2.VideoCapture(os.path.join(dir, video_name))\n",
    "frame_counter = 0\n",
    "\n",
    "#Checks if Temp folder exists, if not, make one\n",
    "if not os.path.exists(os.path.join(dir,'Temp')):\n",
    "    os.mkdir(os.path.join(dir,'Temp'))\n",
    "    print(\"Directory \" , os.path.join(dir,'Temp') ,  \" Created \")\n",
    "else:    \n",
    "    print(\"Directory \" , os.path.join(dir,'Temp') ,  \" already exists\")\n",
    "    # delete Temp content and folder and recreate it\n",
    "    for file in os.listdir(os.path.join(dir,'Temp')):\n",
    "        os.remove(os.path.join(dir,'Temp',file))\n",
    "    os.rmdir(os.path.join(dir,'Temp'))\n",
    "    os.mkdir(os.path.join(dir,'Temp'))\n",
    "os.chdir(os.path.join(dir,'Temp'))\n",
    "\n",
    "#Main process\n",
    "#Runs through every frame to detect subtitles\n",
    "#Saves each frame into Temp folder\n",
    "while (frame_counter < vid.get(cv2.CAP_PROP_FRAME_COUNT)):\n",
    "    ret, img = vid.read()\n",
    "    name = \"frame%d.jpg\" % (frame_counter)\n",
    "\n",
    "    if not ret:\n",
    "        break\n",
    "\n",
    "    if not os.path.exists(os.path.join(dir,\"Temp/frame%d.jpg\" % (frame_counter))):\n",
    "        mask = np.zeros(img.shape, np.uint8)\n",
    "        tmp_image = cv2.cvtColor(img, cv2.COLOR_BGR2GRAY)\n",
    "        tmp_image = cv2.threshold(tmp_image, 240, 255, cv2.THRESH_BINARY)[1]\n",
    "        kernel = cv2.getStructuringElement(cv2.MORPH_RECT, (9,7))\n",
    "        tmp_image = cv2.morphologyEx(tmp_image, cv2.MORPH_CLOSE, kernel)\n",
    "        tmp_image = cv2.dilate(tmp_image, kernel, iterations=7)\n",
    "\n",
    "        contours, hierarchy = cv2.findContours(tmp_image, cv2.RETR_EXTERNAL, cv2.CHAIN_APPROX_SIMPLE)\n",
    "\n",
    "        if len(contours) != 0:\n",
    "            c = max(contours, key=cv2.contourArea)\n",
    "            x,y,w,h = cv2.boundingRect(c)        \n",
    "            mask = cv2.cvtColor(mask, cv2.COLOR_BGR2GRAY)\n",
    "            mask[y:y+h, x:x+w] = tmp_image[y:y+h, x:x+w]\n",
    "            mask = cv2.erode(mask, kernel, iterations=1)\n",
    "            mask = cv2.GaussianBlur(mask, (3,3), 0)\n",
    "\n",
    "        if len(mask.shape) > 2:  \n",
    "            mask = cv2.cvtColor(mask, cv2.COLOR_BGR2GRAY)\n",
    "\n",
    "        cleaned_image = cv2.inpaint(img, mask, 3, cv2.INPAINT_TELEA)      \n",
    "        cv2.imwrite(name, cleaned_image)\n",
    "        frame_counter += 1\n",
    "\n",
    "#Move back to original video directory and begin saving frames into one video\n",
    "os.chdir(dir)\n",
    "# Define the codec using VideoWriter_fourcc and create a VideoWriter object\n",
    "fourcc = cv2.VideoWriter_fourcc(*'avc1')\n",
    "video = cv2.VideoWriter('video_no_audio.mp4', fourcc, int(vid.get(cv2.CAP_PROP_FPS)), (int(vid.get(cv2.CAP_PROP_FRAME_WIDTH)), int(vid.get(cv2.CAP_PROP_FRAME_HEIGHT))))\n",
    "images = [img for img in os.listdir(os.path.join(dir,'Temp')) if img.endswith(\".jpg\")]\n",
    "images = sortedproper(images)\n",
    "for image in images:\n",
    "    print(image)\n",
    "    video.write(cv2.imread(os.path.join(dir, 'Temp', image)))\n",
    "\n",
    "#Cleanup and print execution time\n",
    "video.release()\n",
    "video_with_audio = 'output_audio.mp4'\n",
    "command = f'ffmpeg -i video_no_audio.mp4 -i {audio_output} -c:v copy -c:a aac -strict experimental {video_with_audio}'\n",
    "subprocess.call(command, shell=True)\n",
    "vid.release()\n",
    "print(\"--- %s seconds ---\" % (time.time() - start_time))\n",
    "    "
   ]
  }
 ],
 "metadata": {
  "kernelspec": {
   "display_name": "Python 3",
   "language": "python",
   "name": "python3"
  },
  "language_info": {
   "codemirror_mode": {
    "name": "ipython",
    "version": 3
   },
   "file_extension": ".py",
   "mimetype": "text/x-python",
   "name": "python",
   "nbconvert_exporter": "python",
   "pygments_lexer": "ipython3",
   "version": "3.12.3"
  }
 },
 "nbformat": 4,
 "nbformat_minor": 2
}
